<?xml version="1.0" encoding="iso-8859-1"?>
<!-- Generator: Adobe Illustrator 19.0.0, SVG Export Plug-In . SVG Version: 6.00 Build 0)  -->
<svg version="1.1" id="Layer_1" xmlns="http://www.w3.org/2000/svg" xmlns:xlink="http://www.w3.org/1999/xlink" x="0px" y="0px"
	 viewBox="0 0 512 512" style="enable-background:new 0 0 512 512;" xml:space="preserve">
<circle style="fill:#935635;" cx="256" cy="256" r="256"/>
<path style="fill:#804000;" d="M299.292,508.337c112.059-19.089,199.292-110.99,211.289-225.311l-83.915-83.915l-54.589,5.172
	l-68.382,4.022L147.499,356.543L299.292,508.337z"/>
<rect x="312.889" y="199.111" style="fill:#E6F3FF;" width="113.778" height="56.889"/>
<path style="fill:#FFD15D;" d="M248.396,132.853c-74.347,0-134.618,60.269-134.618,134.618c0,49.819,27.083,93.284,67.31,116.564
	c40.226-23.28,67.31-66.744,67.31-116.564c0-0.034-0.002-0.069-0.002-0.103c0.002,0,0.003,0,0.005,0
	c0,0.034-0.003,0.069-0.003,0.103c0,49.819,27.083,93.284,67.31,116.564c40.226-23.28,67.31-66.744,67.31-116.564
	C383.014,193.122,322.744,132.853,248.396,132.853z"/>
<path style="fill:#F9B54C;" d="M248.396,267.471c0-0.034-0.002-0.069-0.002-0.103c0.002,0,0.003,0,0.005,0
	C248.399,267.402,248.396,267.436,248.396,267.471c0,49.819,27.083,93.284,67.31,116.564c40.226-23.28,67.31-66.744,67.31-116.564
	c0-74.347-60.271-134.618-134.618-134.618v134.618H248.396z"/>
<g>
</g>
<g>
</g>
<g>
</g>
<g>
</g>
<g>
</g>
<g>
</g>
<g>
</g>
<g>
</g>
<g>
</g>
<g>
</g>
<g>
</g>
<g>
</g>
<g>
</g>
<g>
</g>
<g>
</g>
</svg>
